<?xml version="1.0" encoding="UTF-8" standalone="no"?>
<svg
   width="24"
   height="24"
   version="1.1"
   id="svg4"
   sodipodi:docname="del_time.svg"
   inkscape:version="1.2 (1:1.2+202205211824+da316b6974)"
   xmlns:inkscape="http://www.inkscape.org/namespaces/inkscape"
   xmlns:sodipodi="http://sodipodi.sourceforge.net/DTD/sodipodi-0.dtd"
   xmlns="http://www.w3.org/2000/svg"
   xmlns:svg="http://www.w3.org/2000/svg">
  <defs
     id="defs8" />
  <sodipodi:namedview
     id="namedview6"
     pagecolor="#ffffff"
     bordercolor="#000000"
     borderopacity="0.25"
     inkscape:showpageshadow="2"
     inkscape:pageopacity="0.0"
     inkscape:pagecheckerboard="0"
     inkscape:deskcolor="#d1d1d1"
     showgrid="false"
     inkscape:zoom="19.708333"
     inkscape:cx="11.289641"
     inkscape:cy="12.02537"
     inkscape:window-width="1366"
     inkscape:window-height="704"
     inkscape:window-x="0"
     inkscape:window-y="0"
     inkscape:window-maximized="1"
     inkscape:current-layer="svg4" />
  <path
     d="M13 3h4v2h-4zM3 8h4v2H3zm0 8h4v2H3zm-1-4h3.99v2H2zm19.707-5.293-1.414-1.414L18.586 7A6.937 6.937 0 0 0 15 6c-3.859 0-7 3.141-7 7s3.141 7 7 7 7-3.141 7-7a6.968 6.968 0 0 0-1.855-4.73l1.562-1.563zM16 14h-2V8.958h2V14z"
     id="path2"
     style="fill:#e9003a;fill-opacity:1" />
</svg>
