<?xml version="1.0" encoding="UTF-8" standalone="no"?>
<svg
   width="512"
   height="512"
   viewBox="0 0 512 512"
   version="1.1"
   id="svg6"
   sodipodi:docname="phone.svg"
   inkscape:version="1.2 (1:1.2+202205211824+da316b6974)"
   xmlns:inkscape="http://www.inkscape.org/namespaces/inkscape"
   xmlns:sodipodi="http://sodipodi.sourceforge.net/DTD/sodipodi-0.dtd"
   xmlns="http://www.w3.org/2000/svg"
   xmlns:svg="http://www.w3.org/2000/svg">
  <defs
     id="defs10" />
  <sodipodi:namedview
     id="namedview8"
     pagecolor="#ffffff"
     bordercolor="#000000"
     borderopacity="0.25"
     inkscape:showpageshadow="2"
     inkscape:pageopacity="0.0"
     inkscape:pagecheckerboard="0"
     inkscape:deskcolor="#d1d1d1"
     showgrid="false"
     inkscape:zoom="0.92382812"
     inkscape:cx="241.92812"
     inkscape:cy="256.54123"
     inkscape:window-width="1366"
     inkscape:window-height="704"
     inkscape:window-x="0"
     inkscape:window-y="0"
     inkscape:window-maximized="1"
     inkscape:current-layer="svg6" />
  <title
     id="title2">ionicons-v5-g</title>
  <path
     d="M451,374c-15.88-16-54.34-39.35-73-48.76C353.7,313,351.7,312,332.6,326.19c-12.74,9.47-21.21,17.93-36.12,14.75s-47.31-21.11-75.68-49.39-47.34-61.62-50.53-76.48,5.41-23.23,14.79-36c13.22-18,12.22-21,.92-45.3-8.81-18.9-32.84-57-48.9-72.8C119.9,44,119.9,47,108.83,51.6A160.15,160.15,0,0,0,83,65.37C67,76,58.12,84.83,51.91,98.1s-9,44.38,23.07,102.64,54.57,88.05,101.14,134.49S258.5,406.64,310.85,436c64.76,36.27,89.6,29.2,102.91,23s22.18-15,32.83-31a159.09,159.09,0,0,0,13.8-25.8C465,391.17,468,391.17,451,374Z"
     style="fill:#000000;stroke:#fafafa;stroke-miterlimit:10;stroke-width:32px;fill-opacity:0;stroke-opacity:1"
     id="path4" />
</svg>
